<mxfile host="app.diagrams.net" modified="2021-02-23T05:04:22.751Z" agent="5.0 (Windows)" etag="h_BeOtFvIlUIJhOAAVdy" version="14.4.2" type="github">
  <diagram name="Page-1" id="97916047-d0de-89f5-080d-49f4d83e522f">
    <mxGraphModel dx="942" dy="583" grid="1" gridSize="10" guides="1" tooltips="1" connect="1" arrows="1" fold="1" page="1" pageScale="1.5" pageWidth="1169" pageHeight="827" background="#ffffff" math="0" shadow="0">
      <root>
        <mxCell id="0" />
        <mxCell id="1" parent="0" />
        <mxCell id="pvf-iyA1KGxq7PoEo2aC-74" style="edgeStyle=orthogonalEdgeStyle;rounded=0;orthogonalLoop=1;jettySize=auto;html=1;fontSize=12;" edge="1" parent="1" source="pvf-iyA1KGxq7PoEo2aC-56" target="pvf-iyA1KGxq7PoEo2aC-58">
          <mxGeometry relative="1" as="geometry" />
        </mxCell>
        <mxCell id="pvf-iyA1KGxq7PoEo2aC-75" style="edgeStyle=orthogonalEdgeStyle;rounded=0;orthogonalLoop=1;jettySize=auto;html=1;entryX=0;entryY=0.5;entryDx=0;entryDy=0;fontSize=12;" edge="1" parent="1" source="pvf-iyA1KGxq7PoEo2aC-56" target="pvf-iyA1KGxq7PoEo2aC-57">
          <mxGeometry relative="1" as="geometry" />
        </mxCell>
        <mxCell id="pvf-iyA1KGxq7PoEo2aC-76" style="edgeStyle=orthogonalEdgeStyle;rounded=0;orthogonalLoop=1;jettySize=auto;html=1;entryX=0;entryY=0.5;entryDx=0;entryDy=0;fontSize=12;" edge="1" parent="1" source="pvf-iyA1KGxq7PoEo2aC-56" target="pvf-iyA1KGxq7PoEo2aC-59">
          <mxGeometry relative="1" as="geometry" />
        </mxCell>
        <mxCell id="pvf-iyA1KGxq7PoEo2aC-92" style="edgeStyle=orthogonalEdgeStyle;rounded=0;orthogonalLoop=1;jettySize=auto;html=1;entryX=0;entryY=0.5;entryDx=0;entryDy=0;fontSize=12;" edge="1" parent="1" source="pvf-iyA1KGxq7PoEo2aC-56" target="pvf-iyA1KGxq7PoEo2aC-66">
          <mxGeometry relative="1" as="geometry" />
        </mxCell>
        <mxCell id="pvf-iyA1KGxq7PoEo2aC-56" value="模态分析软件" style="rounded=1;whiteSpace=wrap;html=1;fontSize=12;" vertex="1" parent="1">
          <mxGeometry x="370" y="390" width="130" height="30" as="geometry" />
        </mxCell>
        <mxCell id="pvf-iyA1KGxq7PoEo2aC-77" style="edgeStyle=orthogonalEdgeStyle;rounded=0;orthogonalLoop=1;jettySize=auto;html=1;entryX=0;entryY=0.5;entryDx=0;entryDy=0;fontSize=12;" edge="1" parent="1" source="pvf-iyA1KGxq7PoEo2aC-57" target="pvf-iyA1KGxq7PoEo2aC-72">
          <mxGeometry relative="1" as="geometry" />
        </mxCell>
        <mxCell id="pvf-iyA1KGxq7PoEo2aC-78" style="edgeStyle=orthogonalEdgeStyle;rounded=0;orthogonalLoop=1;jettySize=auto;html=1;entryX=0;entryY=0.5;entryDx=0;entryDy=0;fontSize=12;" edge="1" parent="1" source="pvf-iyA1KGxq7PoEo2aC-57" target="pvf-iyA1KGxq7PoEo2aC-60">
          <mxGeometry relative="1" as="geometry" />
        </mxCell>
        <mxCell id="pvf-iyA1KGxq7PoEo2aC-79" style="edgeStyle=orthogonalEdgeStyle;rounded=0;orthogonalLoop=1;jettySize=auto;html=1;entryX=0;entryY=0.5;entryDx=0;entryDy=0;fontSize=12;" edge="1" parent="1" source="pvf-iyA1KGxq7PoEo2aC-57" target="pvf-iyA1KGxq7PoEo2aC-62">
          <mxGeometry relative="1" as="geometry" />
        </mxCell>
        <mxCell id="pvf-iyA1KGxq7PoEo2aC-80" style="edgeStyle=orthogonalEdgeStyle;rounded=0;orthogonalLoop=1;jettySize=auto;html=1;entryX=0;entryY=0.5;entryDx=0;entryDy=0;fontSize=12;" edge="1" parent="1" source="pvf-iyA1KGxq7PoEo2aC-57" target="pvf-iyA1KGxq7PoEo2aC-63">
          <mxGeometry relative="1" as="geometry" />
        </mxCell>
        <mxCell id="pvf-iyA1KGxq7PoEo2aC-57" value="三维显示与建模" style="rounded=1;whiteSpace=wrap;html=1;fontSize=12;" vertex="1" parent="1">
          <mxGeometry x="580" y="190" width="120" height="30" as="geometry" />
        </mxCell>
        <mxCell id="pvf-iyA1KGxq7PoEo2aC-81" style="edgeStyle=orthogonalEdgeStyle;rounded=0;orthogonalLoop=1;jettySize=auto;html=1;entryX=0;entryY=0.5;entryDx=0;entryDy=0;fontSize=12;" edge="1" parent="1" source="pvf-iyA1KGxq7PoEo2aC-58" target="pvf-iyA1KGxq7PoEo2aC-64">
          <mxGeometry relative="1" as="geometry" />
        </mxCell>
        <mxCell id="pvf-iyA1KGxq7PoEo2aC-82" style="edgeStyle=orthogonalEdgeStyle;rounded=0;orthogonalLoop=1;jettySize=auto;html=1;entryX=0;entryY=0.5;entryDx=0;entryDy=0;fontSize=12;" edge="1" parent="1" source="pvf-iyA1KGxq7PoEo2aC-58" target="pvf-iyA1KGxq7PoEo2aC-71">
          <mxGeometry relative="1" as="geometry" />
        </mxCell>
        <mxCell id="pvf-iyA1KGxq7PoEo2aC-83" style="edgeStyle=orthogonalEdgeStyle;rounded=0;orthogonalLoop=1;jettySize=auto;html=1;entryX=0;entryY=0.5;entryDx=0;entryDy=0;fontSize=12;" edge="1" parent="1" source="pvf-iyA1KGxq7PoEo2aC-58" target="pvf-iyA1KGxq7PoEo2aC-61">
          <mxGeometry relative="1" as="geometry" />
        </mxCell>
        <mxCell id="pvf-iyA1KGxq7PoEo2aC-84" style="edgeStyle=orthogonalEdgeStyle;rounded=0;orthogonalLoop=1;jettySize=auto;html=1;entryX=0;entryY=0.5;entryDx=0;entryDy=0;fontSize=12;" edge="1" parent="1" source="pvf-iyA1KGxq7PoEo2aC-58" target="pvf-iyA1KGxq7PoEo2aC-65">
          <mxGeometry relative="1" as="geometry" />
        </mxCell>
        <mxCell id="pvf-iyA1KGxq7PoEo2aC-86" style="edgeStyle=orthogonalEdgeStyle;rounded=0;orthogonalLoop=1;jettySize=auto;html=1;entryX=0;entryY=0.5;entryDx=0;entryDy=0;fontSize=12;" edge="1" parent="1" source="pvf-iyA1KGxq7PoEo2aC-58" target="pvf-iyA1KGxq7PoEo2aC-67">
          <mxGeometry relative="1" as="geometry" />
        </mxCell>
        <mxCell id="pvf-iyA1KGxq7PoEo2aC-58" value="模态分析" style="rounded=1;whiteSpace=wrap;html=1;fontSize=12;" vertex="1" parent="1">
          <mxGeometry x="580" y="390" width="120" height="30" as="geometry" />
        </mxCell>
        <mxCell id="pvf-iyA1KGxq7PoEo2aC-87" style="edgeStyle=orthogonalEdgeStyle;rounded=0;orthogonalLoop=1;jettySize=auto;html=1;entryX=0;entryY=0.5;entryDx=0;entryDy=0;fontSize=12;" edge="1" parent="1" source="pvf-iyA1KGxq7PoEo2aC-59" target="pvf-iyA1KGxq7PoEo2aC-68">
          <mxGeometry relative="1" as="geometry" />
        </mxCell>
        <mxCell id="pvf-iyA1KGxq7PoEo2aC-88" style="edgeStyle=orthogonalEdgeStyle;rounded=0;orthogonalLoop=1;jettySize=auto;html=1;entryX=0;entryY=0.5;entryDx=0;entryDy=0;fontSize=12;" edge="1" parent="1" source="pvf-iyA1KGxq7PoEo2aC-59" target="pvf-iyA1KGxq7PoEo2aC-69">
          <mxGeometry relative="1" as="geometry" />
        </mxCell>
        <mxCell id="pvf-iyA1KGxq7PoEo2aC-89" style="edgeStyle=orthogonalEdgeStyle;rounded=0;orthogonalLoop=1;jettySize=auto;html=1;entryX=0;entryY=0.5;entryDx=0;entryDy=0;fontSize=12;" edge="1" parent="1" source="pvf-iyA1KGxq7PoEo2aC-59" target="pvf-iyA1KGxq7PoEo2aC-70">
          <mxGeometry relative="1" as="geometry" />
        </mxCell>
        <mxCell id="pvf-iyA1KGxq7PoEo2aC-59" value="振动仿真" style="rounded=1;whiteSpace=wrap;html=1;fontSize=12;" vertex="1" parent="1">
          <mxGeometry x="580" y="530" width="120" height="30" as="geometry" />
        </mxCell>
        <mxCell id="pvf-iyA1KGxq7PoEo2aC-60" value="基本模型创建" style="rounded=1;whiteSpace=wrap;html=1;fontSize=12;" vertex="1" parent="1">
          <mxGeometry x="800" y="170" width="120" height="30" as="geometry" />
        </mxCell>
        <mxCell id="pvf-iyA1KGxq7PoEo2aC-61" value="模态分析算法" style="rounded=1;whiteSpace=wrap;html=1;fontSize=12;" vertex="1" parent="1">
          <mxGeometry x="800" y="370" width="120" height="30" as="geometry" />
        </mxCell>
        <mxCell id="pvf-iyA1KGxq7PoEo2aC-62" value="模型拾取与编辑" style="rounded=1;whiteSpace=wrap;html=1;fontSize=12;" vertex="1" parent="1">
          <mxGeometry x="800" y="210" width="120" height="30" as="geometry" />
        </mxCell>
        <mxCell id="pvf-iyA1KGxq7PoEo2aC-63" value="测点标记及编辑" style="rounded=1;whiteSpace=wrap;html=1;fontSize=12;" vertex="1" parent="1">
          <mxGeometry x="800" y="250" width="120" height="30" as="geometry" />
        </mxCell>
        <mxCell id="pvf-iyA1KGxq7PoEo2aC-64" value="频响处理" style="rounded=1;whiteSpace=wrap;html=1;fontSize=12;" vertex="1" parent="1">
          <mxGeometry x="800" y="290" width="120" height="30" as="geometry" />
        </mxCell>
        <mxCell id="pvf-iyA1KGxq7PoEo2aC-65" value="模态编辑" style="rounded=1;whiteSpace=wrap;html=1;fontSize=12;" vertex="1" parent="1">
          <mxGeometry x="800" y="410" width="120" height="30" as="geometry" />
        </mxCell>
        <mxCell id="pvf-iyA1KGxq7PoEo2aC-66" value="模态置信准则" style="rounded=1;whiteSpace=wrap;html=1;fontSize=12;" vertex="1" parent="1">
          <mxGeometry x="580" y="620" width="120" height="30" as="geometry" />
        </mxCell>
        <mxCell id="pvf-iyA1KGxq7PoEo2aC-67" value="振型拟合" style="rounded=1;whiteSpace=wrap;html=1;fontSize=12;" vertex="1" parent="1">
          <mxGeometry x="800" y="450" width="120" height="30" as="geometry" />
        </mxCell>
        <mxCell id="pvf-iyA1KGxq7PoEo2aC-68" value="仿真动画" style="rounded=1;whiteSpace=wrap;html=1;fontSize=12;" vertex="1" parent="1">
          <mxGeometry x="800" y="490" width="120" height="30" as="geometry" />
        </mxCell>
        <mxCell id="pvf-iyA1KGxq7PoEo2aC-69" value="运行状态振型仿真" style="rounded=1;whiteSpace=wrap;html=1;fontSize=12;" vertex="1" parent="1">
          <mxGeometry x="800" y="530" width="120" height="30" as="geometry" />
        </mxCell>
        <mxCell id="pvf-iyA1KGxq7PoEo2aC-70" value="模态振型仿真" style="rounded=1;whiteSpace=wrap;html=1;fontSize=12;" vertex="1" parent="1">
          <mxGeometry x="800" y="570" width="120" height="30" as="geometry" />
        </mxCell>
        <mxCell id="pvf-iyA1KGxq7PoEo2aC-71" value="模态指示函数" style="rounded=1;whiteSpace=wrap;html=1;fontSize=12;" vertex="1" parent="1">
          <mxGeometry x="800" y="330" width="120" height="30" as="geometry" />
        </mxCell>
        <mxCell id="pvf-iyA1KGxq7PoEo2aC-72" value="三维视图显示" style="rounded=1;whiteSpace=wrap;html=1;fontSize=12;" vertex="1" parent="1">
          <mxGeometry x="800" y="130" width="120" height="30" as="geometry" />
        </mxCell>
      </root>
    </mxGraphModel>
  </diagram>
</mxfile>
